# Blender v2.77 (sub 0) OBJ File: 'map.blend'
# www.blender.org
mtllib map.mtl
o Grid
v 7.525420 -0.025993 0.009471
v 5.845895 -0.025993 0.009471
v 5.845895 0.191642 0.009471
v 7.525420 0.191642 0.009471
v 4.166370 -0.025993 0.009471
v 4.166370 0.191642 0.009471
v 2.486844 -0.025993 0.009471
v 2.486844 0.191642 0.009471
v 0.807318 -0.025993 0.009471
v 0.807318 0.191642 0.009471
v -0.032444 -0.025993 0.009471
v -0.872207 -0.025993 0.009471
v -0.872207 0.191642 0.009471
v -0.032444 0.191642 0.009471
v -1.711970 -0.025993 0.009471
v -2.551732 -0.025993 0.009471
v -2.551732 0.191642 0.009471
v -1.711970 0.191642 0.009471
v -3.811376 -0.025993 0.009471
v -4.231258 -0.025993 0.009471
v -4.231258 0.191642 0.009471
v -3.811376 0.191642 0.009471
v -5.071022 -0.025993 0.009471
v -5.910783 -0.025993 0.009471
v -5.910783 0.191642 0.009471
v -5.071022 0.191642 0.009471
v -7.590308 -0.025993 0.009471
v -7.590308 0.191642 0.009471
v 5.845895 0.409277 0.009471
v 7.525420 0.409277 0.009471
v 4.166370 0.500310 0.009471
v 2.486844 0.645961 0.009471
v 0.807318 0.846233 0.009471
v -0.872207 0.409277 0.009471
v -0.032444 1.228569 0.009471
v -2.551732 0.409277 0.009471
v -1.711970 0.409277 0.009471
v -4.231258 0.409277 0.009471
v -3.811376 0.706974 0.009471
v -5.910783 0.409277 0.009471
v -5.071022 0.409277 0.009471
v -7.590308 0.409277 0.009471
v -2.971614 0.191642 0.009471
v -3.391495 0.191642 0.009471
v -3.391495 0.609277 0.009471
v -2.971614 0.609277 0.009471
v -2.971614 -0.025993 0.009471
v -3.391495 -0.025993 0.009471
vn 0.0000 0.0000 -1.0000
usemtl None
s 1
f 1//1 2//1 3//1 4//1
f 2//1 5//1 6//1 3//1
f 5//1 7//1 8//1 6//1
f 7//1 9//1 10//1 8//1
f 11//1 12//1 13//1 14//1
f 15//1 16//1 17//1 18//1
f 19//1 20//1 21//1 22//1
f 23//1 24//1 25//1 26//1
f 24//1 27//1 28//1 25//1
f 4//1 3//1 29//1 30//1
f 3//1 6//1 31//1 29//1
f 6//1 8//1 32//1 31//1
f 8//1 10//1 33//1 32//1
f 14//1 13//1 34//1 35//1
f 18//1 17//1 36//1 37//1
f 22//1 21//1 38//1 39//1
f 26//1 25//1 40//1 41//1
f 25//1 28//1 42//1 40//1
f 21//1 26//1 41//1 38//1
f 20//1 23//1 26//1 21//1
f 43//1 44//1 45//1 46//1
f 47//1 48//1 44//1 43//1
f 13//1 18//1 37//1 34//1
f 12//1 15//1 18//1 13//1
f 10//1 14//1 35//1 33//1
f 9//1 11//1 14//1 10//1
f 44//1 22//1 39//1 45//1
f 48//1 19//1 22//1 44//1
f 16//1 47//1 43//1 17//1
f 17//1 43//1 46//1 36//1
